<svg viewBox="0 0 7.41431 10.293" xmlns="http://www.w3.org/2000/svg" xmlns:xlink="http://www.w3.org/1999/xlink" width="7.414307" height="10.292969" fill="none" customFrame="#000000">
	<path id="icon" d="M6.20711 0.207107L3.70711 2.70711L1.20711 0.207107C0.930964 -0.0690356 0.483249 -0.0690356 0.207107 0.207107C-0.0690356 0.483249 -0.0690356 0.930964 0.207107 1.20711L3 4C3.39052 4.39052 4.02369 4.39052 4.41421 4L7.20711 1.20711C7.48325 0.930964 7.48325 0.483249 7.20711 0.207107C6.93096 -0.0690356 6.48325 -0.0690356 6.20711 0.207107ZM6.20711 6.20711L3.70711 8.70711L1.20711 6.20711C0.930964 5.93096 0.483249 5.93096 0.207107 6.20711C-0.0690356 6.48325 -0.0690356 6.93096 0.207107 7.20711L3 10C3.39052 10.3905 4.02369 10.3905 4.41421 10L7.20711 7.20711C7.48325 6.93096 7.48325 6.48325 7.20711 6.20711C6.93096 5.93096 6.48325 5.93096 6.20711 6.20711Z" fill="rgb(64.9162,246.293,214.533)" fill-rule="evenodd" />
</svg>
