<svg viewBox="0 0 40 40" xmlns="http://www.w3.org/2000/svg" xmlns:xlink="http://www.w3.org/1999/xlink" width="40.000000" height="40.000000" fill="none" customFrame="#000000">
	<g id="ic/go">
		<rect id="bound" width="40.000000" height="40.000000" x="0.000000" y="0.000000" />
		<rect id="back" width="40.000000" height="40.000000" x="0.000000" y="0.000000" rx="20.000000" fill="rgb(215.985,215.985,215.985)" fill-opacity="0" />
		<rect id="back" width="38.000000" height="38.000000" x="1.000000" y="1.000000" rx="19.000000" stroke="rgb(255,62.3506,120.733)" stroke-width="2" />
		<path id="dropdown" d="M21.5 20L17.7071 16.2071C17.3166 15.8166 17.3166 15.1834 17.7071 14.7929L17.7929 14.7071C18.1834 14.3166 18.8166 14.3166 19.2071 14.7071L23.7929 19.2929C24.1834 19.6834 24.1834 20.3166 23.7929 20.7071L19.2071 25.2929C18.8166 25.6834 18.1834 25.6834 17.7929 25.2929L17.7071 25.2071C17.3166 24.8166 17.3166 24.1834 17.7071 23.7929L21.5 20Z" fill="rgb(255,62.3506,120.733)" fill-rule="evenodd" />
	</g>
</svg>
